<?xml version="1.0" encoding="UTF-8" standalone="no"?>
<!-- Created with Inkscape (http://www.inkscape.org/) -->

<svg
   xmlns:dc="http://purl.org/dc/elements/1.1/"
   xmlns:cc="http://creativecommons.org/ns#"
   xmlns:rdf="http://www.w3.org/1999/02/22-rdf-syntax-ns#"
   xmlns:svg="http://www.w3.org/2000/svg"
   xmlns="http://www.w3.org/2000/svg"
   xmlns:sodipodi="http://sodipodi.sourceforge.net/DTD/sodipodi-0.dtd"
   xmlns:inkscape="http://www.inkscape.org/namespaces/inkscape"
   id="svg2"
   version="1.1"
   inkscape:version="0.91 r13725"
   xml:space="preserve"
   width="297mm"
   height="210mm"
   viewBox="0 0 1052.3622 744.0945"
   sodipodi:docname="oklogo.svg"><metadata
     id="metadata8"><rdf:RDF><cc:Work
         rdf:about=""><dc:format>image/svg+xml</dc:format><dc:type
           rdf:resource="http://purl.org/dc/dcmitype/StillImage" /><dc:title></dc:title></cc:Work></rdf:RDF></metadata><defs
     id="defs6"><clipPath
       clipPathUnits="userSpaceOnUse"
       id="clipPath16"><path
         d="m 0,141.73 283.46,0 L 283.46,0 0,0 0,141.73 Z"
         id="path18"
         inkscape:connector-curvature="0" /></clipPath><clipPath
       clipPathUnits="userSpaceOnUse"
       id="clipPath84"><path
         d="m 38.4684,89.698 32.6199,0 0,-18.8331 -32.6199,0 0,18.8331 z"
         id="path86"
         inkscape:connector-curvature="0" /></clipPath><clipPath
       clipPathUnits="userSpaceOnUse"
       id="clipPath88"><path
         d="m 54.778,70.865 0,0 0,0 16.31,9.416 -16.31,9.417 -16.31,-9.417 0,0 16.31,-9.416 z"
         id="path90"
         inkscape:connector-curvature="0" /></clipPath><linearGradient
       x1="0"
       y1="0"
       x2="1"
       y2="0"
       gradientUnits="userSpaceOnUse"
       gradientTransform="matrix(-26.437015,-19.10858,-19.10858,26.437015,69.936188,91.237534)"
       spreadMethod="pad"
       id="linearGradient92"><stop
         style="stop-opacity:1;stop-color:#ffffff"
         offset="0"
         id="stop94" /><stop
         style="stop-opacity:1;stop-color:#ffffff"
         offset="0.09682081"
         id="stop96" /><stop
         style="stop-opacity:1;stop-color:#181715"
         offset="1"
         id="stop98" /></linearGradient><clipPath
       clipPathUnits="userSpaceOnUse"
       id="clipPath142"><path
         d="m 0,141.73 283.46,0 L 283.46,0 0,0 0,141.73 Z"
         id="path144"
         inkscape:connector-curvature="0" /></clipPath><clipPath
       clipPathUnits="userSpaceOnUse"
       id="clipPath246"><path
         d="m 38.4482,89.6805 32.5896,0 0,-18.8156 -32.5896,0 0,18.8156 z"
         id="path248"
         inkscape:connector-curvature="0" /></clipPath><clipPath
       clipPathUnits="userSpaceOnUse"
       id="clipPath250"><path
         d="m 54.742,70.865 0.001,0 0,0 16.295,9.408 -16.295,9.407 -16.295,-9.407 0,-10e-4 16.294,-9.407 z"
         id="path252"
         inkscape:connector-curvature="0" /></clipPath><linearGradient
       x1="0"
       y1="0"
       x2="1"
       y2="0"
       gradientUnits="userSpaceOnUse"
       gradientTransform="matrix(-26.412472,-19.090839,-19.090839,26.412472,69.88678,91.21862)"
       spreadMethod="pad"
       id="linearGradient254"><stop
         style="stop-opacity:1;stop-color:#ffffff"
         offset="0"
         id="stop256" /><stop
         style="stop-opacity:1;stop-color:#ffffff"
         offset="0.09682081"
         id="stop258" /><stop
         style="stop-opacity:1;stop-color:#181715"
         offset="1"
         id="stop260" /></linearGradient></defs><sodipodi:namedview
     pagecolor="#ffffff"
     bordercolor="#666666"
     borderopacity="1"
     objecttolerance="10"
     gridtolerance="10"
     guidetolerance="10"
     inkscape:pageopacity="0"
     inkscape:pageshadow="2"
     inkscape:window-width="640"
     inkscape:window-height="480"
     id="namedview4"
     showgrid="false"
     inkscape:zoom="1.0131941"
     inkscape:cx="177.16251"
     inkscape:cy="88.581253"
     inkscape:window-x="1561"
     inkscape:window-y="945"
     inkscape:window-maximized="0"
     inkscape:current-layer="g10"
     units="mm" /><g
     id="g10"
     inkscape:groupmode="layer"
     inkscape:label="OK Merki CMYK (L) allt"
     transform="matrix(1.25,0,0,-1.25,0,744.09448)"><g
       id="g12"><g
         id="g14"
         clip-path="url(#clipPath16)"><g
           id="g20"
           transform="translate(109.1379,73.1491)"><path
             d="M 0,0 C 0,-0.937 0.026,-1.842 0.079,-2.715 0.13,-3.588 0.208,-4.395 0.313,-5.136 0.416,-5.879 0.547,-6.53 0.703,-7.09 0.86,-7.65 1.041,-8.086 1.25,-8.398 c 0.313,-0.443 0.762,-0.717 1.348,-0.82 0.586,-0.105 1.373,-0.157 2.363,-0.157 1.041,0 1.849,0.052 2.422,0.157 0.573,0.103 1.015,0.377 1.328,0.82 0.208,0.312 0.391,0.748 0.547,1.308 0.156,0.56 0.286,1.211 0.39,1.954 0.104,0.741 0.182,1.548 0.235,2.421 C 9.934,-1.842 9.961,-0.937 9.961,0 9.961,0.937 9.934,1.842 9.883,2.714 9.83,3.587 9.752,4.394 9.648,5.136 9.544,5.879 9.414,6.529 9.258,7.09 9.102,7.649 8.919,8.086 8.711,8.398 8.398,8.841 7.956,9.114 7.383,9.218 6.81,9.322 6.028,9.375 5.039,9.375 3.997,9.375 3.184,9.322 2.598,9.218 2.012,9.114 1.563,8.841 1.25,8.398 1.041,8.086 0.86,7.649 0.703,7.09 0.547,6.529 0.416,5.879 0.313,5.136 0.208,4.394 0.13,3.587 0.079,2.714 0.026,1.842 0,0.937 0,0 m 15.39,0 c 0,-2.5 -0.228,-4.74 -0.683,-6.718 -0.456,-1.98 -1.113,-3.477 -1.973,-4.492 -0.834,-0.991 -1.868,-1.648 -3.105,-1.973 -1.237,-0.325 -2.807,-0.489 -4.707,-0.489 -1.901,0 -3.457,0.164 -4.668,0.489 -1.211,0.325 -2.233,0.982 -3.066,1.973 -0.834,1.015 -1.479,2.512 -1.934,4.492 C -5.202,-4.74 -5.429,-2.5 -5.429,0 c 0,2.5 0.227,4.739 0.683,6.718 0.455,1.979 1.1,3.477 1.934,4.492 0.833,0.99 1.875,1.647 3.125,1.973 1.25,0.325 2.825,0.488 4.726,0.488 1.901,0 3.45,-0.17 4.649,-0.507 1.197,-0.34 2.212,-0.99 3.046,-1.954 0.86,-1.015 1.517,-2.513 1.973,-4.492 C 15.162,4.739 15.39,2.5 15.39,0"
             style="fill:#626262;fill-opacity:1;fill-rule:nonzero;stroke:none"
             id="path22"
             inkscape:connector-curvature="0" /></g><g
           id="g24"
           transform="translate(134.4099,64.0087)"><path
             d="m 0,0 c 0,-0.234 0.104,-0.365 0.313,-0.391 0.364,-0.078 0.742,-0.123 1.132,-0.136 0.391,-0.013 0.768,-0.02 1.134,-0.02 0.885,0 1.626,0.098 2.226,0.293 C 5.403,-0.059 5.885,0.299 6.25,0.82 6.614,1.341 6.881,2.064 7.051,2.988 7.22,3.912 7.305,5.103 7.305,6.562 7.305,7.969 7.232,9.107 7.09,9.98 6.946,10.852 6.693,11.542 6.328,12.05 5.963,12.558 5.469,12.903 4.843,13.086 4.219,13.267 3.437,13.359 2.5,13.359 2.005,13.359 1.588,13.339 1.25,13.3 0.911,13.261 0.599,13.215 0.313,13.164 0.182,13.137 0.098,13.079 0.059,12.988 0.02,12.896 0,12.798 0,12.695 L 0,0 Z m 2.539,17.148 c 2.032,0 3.697,-0.196 5,-0.586 1.302,-0.39 2.33,-1.003 3.086,-1.836 0.755,-0.834 1.275,-1.921 1.563,-3.261 0.286,-1.342 0.429,-2.963 0.429,-4.864 0,-1.849 -0.163,-3.45 -0.489,-4.804 -0.325,-1.354 -0.872,-2.468 -1.64,-3.34 C 9.72,-2.416 8.717,-3.067 7.481,-3.496 6.243,-3.925 4.726,-4.14 2.93,-4.14 2.487,-4.14 1.998,-4.127 1.465,-4.101 0.931,-4.076 0.547,-4.063 0.313,-4.063 0.104,-4.063 0,-4.166 0,-4.375 l 0,-6.406 c 0,-0.26 -0.13,-0.391 -0.39,-0.391 l -4.336,0 c -0.261,0 -0.39,0.131 -0.39,0.391 l 0,26.679 c 0,0.182 0.142,0.325 0.429,0.429 0.365,0.131 0.833,0.248 1.406,0.352 0.573,0.104 1.185,0.189 1.836,0.254 0.651,0.064 1.322,0.117 2.012,0.156 0.69,0.039 1.347,0.059 1.972,0.059"
             style="fill:#626262;fill-opacity:1;fill-rule:nonzero;stroke:none"
             id="path26"
             inkscape:connector-curvature="0" /></g><g
           id="g28"
           transform="translate(152.2997,59.8683)"><path
             d="m 0,0 c -0.261,0 -0.391,0.13 -0.391,0.391 l 0,20.116 c 0,0.26 0.13,0.391 0.391,0.391 l 4.335,0 c 0.261,0 0.391,-0.131 0.391,-0.391 l 0,-20.116 C 4.726,0.13 4.596,0 4.335,0 L 0,0 Z m -0.117,24.374 c -0.261,0 -0.391,0.13 -0.391,0.391 l 0,3.866 c 0,0.26 0.13,0.391 0.391,0.391 l 4.57,0 c 0.26,0 0.39,-0.131 0.39,-0.391 l 0,-3.866 c 0,-0.261 -0.13,-0.391 -0.39,-0.391 l -4.57,0 z"
             style="fill:#626262;fill-opacity:1;fill-rule:nonzero;stroke:none"
             id="path30"
             inkscape:connector-curvature="0" /></g><g
           id="g32"
           transform="translate(174.9938,59.8683)"><path
             d="m 0,0 c -0.261,0 -0.39,0.13 -0.39,0.391 l 0,13.202 c 0,0.729 -0.053,1.341 -0.157,1.836 -0.104,0.494 -0.293,0.879 -0.566,1.153 -0.273,0.273 -0.658,0.468 -1.152,0.586 -0.495,0.117 -1.133,0.175 -1.914,0.175 -1.199,0 -2.123,-0.078 -2.774,-0.234 -0.26,-0.079 -0.39,-0.209 -0.39,-0.391 l 0,-16.327 C -7.343,0.13 -7.474,0 -7.734,0 l -4.336,0 c -0.26,0 -0.39,0.13 -0.39,0.391 l 0,19.687 c 0,0.207 0.13,0.337 0.39,0.39 0.521,0.078 1.12,0.169 1.797,0.273 0.677,0.104 1.38,0.195 2.109,0.274 0.73,0.078 1.452,0.143 2.169,0.195 0.715,0.052 1.386,0.078 2.011,0.078 1.719,0 3.138,-0.123 4.258,-0.371 1.119,-0.248 2.012,-0.658 2.675,-1.23 0.664,-0.574 1.127,-1.335 1.387,-2.285 0.26,-0.951 0.39,-2.142 0.39,-3.575 l 0,-13.436 C 4.726,0.13 4.596,0 4.336,0 L 0,0 Z"
             style="fill:#626262;fill-opacity:1;fill-rule:nonzero;stroke:none"
             id="path34"
             inkscape:connector-curvature="0" /></g><g
           id="g36"
           transform="translate(209.4776,86.039)"><path
             d="m 0,0 c -0.182,-0.312 -0.456,-0.755 -0.82,-1.328 -0.365,-0.573 -0.775,-1.205 -1.231,-1.894 -0.455,-0.691 -0.931,-1.42 -1.425,-2.188 -0.495,-0.769 -0.984,-1.523 -1.465,-2.266 -0.482,-0.741 -0.932,-1.432 -1.348,-2.07 -0.416,-0.638 -0.768,-1.165 -1.054,-1.581 -0.182,-0.261 -0.293,-0.444 -0.332,-0.548 -0.039,-0.104 -0.059,-0.209 -0.059,-0.312 0,-0.26 0.118,-0.56 0.352,-0.898 0.286,-0.443 0.657,-1.023 1.113,-1.738 0.455,-0.717 0.944,-1.492 1.465,-2.325 0.52,-0.834 1.054,-1.699 1.601,-2.597 0.547,-0.899 1.061,-1.745 1.543,-2.539 0.481,-0.795 0.898,-1.504 1.25,-2.129 0.351,-0.625 0.606,-1.081 0.762,-1.367 0,-0.26 -0.118,-0.391 -0.352,-0.391 l -5.078,0 c -0.156,0 -0.28,0.04 -0.371,0.117 -0.091,0.078 -0.163,0.157 -0.215,0.235 -0.312,0.573 -0.736,1.354 -1.269,2.343 -0.534,0.99 -1.107,2.018 -1.719,3.086 -0.612,1.068 -1.205,2.096 -1.777,3.086 -0.573,0.989 -1.042,1.783 -1.406,2.383 -0.131,0.208 -0.273,0.338 -0.43,0.391 -0.156,0.051 -0.43,0.077 -0.82,0.077 -0.261,0 -0.391,-0.091 -0.391,-0.273 l 0,-11.054 c 0,-0.26 -0.13,-0.391 -0.391,-0.391 l -4.452,0 c -0.261,0 -0.391,0.131 -0.391,0.391 l 0,25.78 c 0,0.26 0.13,0.391 0.391,0.391 l 4.452,0 c 0.261,0 0.391,-0.131 0.391,-0.391 l 0,-10.195 c 0,-0.183 0.157,-0.274 0.469,-0.274 0.728,0 1.145,0.091 1.25,0.274 0.39,0.625 0.872,1.419 1.445,2.383 0.573,0.963 1.152,1.939 1.738,2.929 0.586,0.99 1.133,1.927 1.641,2.813 0.508,0.884 0.905,1.575 1.191,2.07 0.104,0.26 0.26,0.391 0.469,0.391 l 4.961,0 C -0.104,0.391 0,0.26 0,0"
             style="fill:#626262;fill-opacity:1;fill-rule:nonzero;stroke:none"
             id="path38"
             inkscape:connector-curvature="0" /></g><g
           id="g40"
           transform="translate(216.6266,72.2117)"><path
             d="m 0,0 c 0,-0.183 0.078,-0.274 0.234,-0.274 l 7.227,0 c 0.155,0 0.266,0.059 0.331,0.176 C 7.857,0.019 7.89,0.338 7.89,0.86 7.89,2.344 7.643,3.47 7.148,4.238 6.653,5.005 5.664,5.39 4.179,5.39 3.32,5.39 2.617,5.254 2.07,4.98 1.523,4.707 1.093,4.329 0.781,3.847 0.469,3.365 0.26,2.793 0.156,2.128 0.052,1.465 0,0.755 0,0 m 11.64,-11.601 c -0.756,-0.365 -1.712,-0.644 -2.871,-0.84 -1.159,-0.195 -2.428,-0.293 -3.808,-0.293 -1.901,0 -3.496,0.254 -4.785,0.761 -1.289,0.508 -2.324,1.231 -3.106,2.169 -0.781,0.937 -1.334,2.07 -1.66,3.398 -0.326,1.328 -0.488,2.812 -0.488,4.453 0,3.516 0.755,6.211 2.265,8.085 1.51,1.875 3.868,2.813 7.071,2.813 1.562,0 2.864,-0.209 3.906,-0.625 1.04,-0.417 1.874,-1.016 2.5,-1.797 0.624,-0.781 1.067,-1.732 1.327,-2.851 0.261,-1.12 0.391,-2.383 0.391,-3.789 0,-1.328 -0.059,-2.214 -0.176,-2.657 -0.117,-0.443 -0.41,-0.663 -0.879,-0.663 l -11.015,0 c -0.156,0 -0.234,-0.079 -0.234,-0.235 0,-1.042 0.123,-1.901 0.371,-2.578 0.247,-0.677 0.606,-1.211 1.074,-1.601 0.469,-0.391 1.055,-0.664 1.758,-0.821 0.703,-0.156 1.51,-0.234 2.422,-0.234 0.989,0 2.004,0.098 3.047,0.293 1.04,0.195 1.861,0.397 2.46,0.605 0.208,0 0.352,-0.065 0.43,-0.195 l 0.273,-3.047 c 0,-0.156 -0.091,-0.273 -0.273,-0.351"
             style="fill:#626262;fill-opacity:1;fill-rule:nonzero;stroke:none"
             id="path42"
             inkscape:connector-curvature="0" /></g><g
           id="g44"
           transform="translate(244.3199,76.8987)"><path
             d="M 0,0 C -0.938,0.156 -1.94,0.234 -3.008,0.234 -3.32,0.234 -3.699,0.215 -4.14,0.176 -4.584,0.137 -4.961,0.052 -5.274,-0.078 -5.456,-0.183 -5.547,-0.326 -5.547,-0.507 l 0,-16.133 c 0,-0.312 -0.144,-0.442 -0.43,-0.39 l -4.296,0 c -0.261,0 -0.391,0.13 -0.391,0.39 l 0,19.687 c 0,0.208 0.13,0.338 0.391,0.39 0.989,0.209 2.148,0.397 3.476,0.567 1.328,0.169 2.617,0.254 3.867,0.254 0.651,0 1.211,-0.014 1.68,-0.039 C -0.782,4.193 -0.287,4.154 0.234,4.102 0.39,4.076 0.469,3.971 0.469,3.789 L 0.273,0.196 C 0.273,0.039 0.181,-0.026 0,0"
             style="fill:#626262;fill-opacity:1;fill-rule:nonzero;stroke:none"
             id="path46"
             inkscape:connector-curvature="0" /></g><g
           id="g48"
           transform="translate(254.3963,81.0005)"><path
             d="m 0,0 c 0,-0.156 0.079,-0.234 0.235,-0.234 l 3.632,0 c 0.26,0 0.391,-0.131 0.391,-0.391 l 0,-3.164 C 4.258,-4.05 4.127,-4.18 3.867,-4.18 l -3.632,0 C 0.079,-4.18 0,-4.258 0,-4.414 l 0,-16.327 c 0,-0.261 -0.13,-0.391 -0.39,-0.391 l -4.375,0 c -0.26,0 -0.391,0.13 -0.391,0.391 l 0,16.327 c 0,0.156 -0.078,0.234 -0.234,0.234 l -2.695,0 c -0.261,0 -0.391,0.13 -0.391,0.391 l 0,3.164 c 0,0.26 0.13,0.391 0.391,0.391 l 2.695,0 c 0.156,0 0.234,0.078 0.234,0.234 l 0,1.758 c 0,0.676 0.091,1.36 0.274,2.05 0.182,0.69 0.513,1.315 0.996,1.875 0.481,0.56 1.165,1.016 2.05,1.367 0.885,0.352 2.032,0.528 3.438,0.528 0.703,0 1.367,-0.04 1.992,-0.117 C 4.219,7.382 4.661,7.304 4.922,7.226 5.156,7.173 5.247,7.004 5.196,6.718 L 4.961,4.023 C 4.908,3.814 4.752,3.736 4.493,3.789 4.231,3.841 3.926,3.892 3.575,3.945 3.223,3.997 2.851,4.023 2.461,4.023 1.627,4.023 1.009,3.789 0.606,3.32 0.202,2.851 0,2.239 0,1.484 L 0,0 Z"
             style="fill:#626262;fill-opacity:1;fill-rule:nonzero;stroke:none"
             id="path50"
             inkscape:connector-curvature="0" /></g><g
           id="g52"
           transform="translate(261.8955,59.8683)"><path
             d="m 0,0 c -0.261,0 -0.391,0.13 -0.391,0.391 l 0,20.116 c 0,0.26 0.13,0.391 0.391,0.391 l 4.335,0 c 0.261,0 0.391,-0.131 0.391,-0.391 l 0,-20.116 C 4.726,0.13 4.596,0 4.335,0 L 0,0 Z m -0.117,24.374 c -0.261,0 -0.391,0.13 -0.391,0.391 l 0,3.866 c 0,0.26 0.13,0.391 0.391,0.391 l 4.57,0 c 0.26,0 0.39,-0.131 0.39,-0.391 l 0,-3.866 c 0,-0.261 -0.13,-0.391 -0.39,-0.391 l -4.57,0 z"
             style="fill:#626262;fill-opacity:1;fill-rule:nonzero;stroke:none"
             id="path54"
             inkscape:connector-curvature="0" /></g><g
           id="g56"
           transform="translate(71.0878,61.4485)"><path
             d="M 0,0 -16.31,-9.416 -32.62,0 l 0,18.833 L -16.31,9.416 0,0 Z"
             style="fill:#4199c4;fill-opacity:1;fill-rule:nonzero;stroke:none"
             id="path58"
             inkscape:connector-curvature="0" /></g><g
           id="g60"
           transform="translate(54.7778,70.865)"><path
             d="m 0,0 0,0 0.001,0 16.309,9.416 -16.309,9.417 -16.31,-9.417 0,0 L 0,0 Z"
             style="fill:#4199c4;fill-opacity:1;fill-rule:nonzero;stroke:none"
             id="path62"
             inkscape:connector-curvature="0" /></g><g
           id="g64"
           transform="translate(49.3412,108.9221)"><path
             d="m 0,0 -32.62,0 0,-32.62 10.873,0 0,21.747 21.747,0 L 0,0 Z"
             style="fill:#4199c4;fill-opacity:1;fill-rule:nonzero;stroke:none"
             id="path66"
             inkscape:connector-curvature="0" /></g><g
           id="g68"
           transform="translate(60.2149,32.8079)"><path
             d="m 0,0 32.62,0 0,32.62 -10.873,0 0,-21.747 L 0,10.873 0,0 Z"
             style="fill:#4199c4;fill-opacity:1;fill-rule:nonzero;stroke:none"
             id="path70"
             inkscape:connector-curvature="0" /></g><g
           id="g72"
           transform="translate(16.721,65.4282)"><path
             d="m 0,0 0,-32.62 32.62,0 0,10.873 -21.747,0 L 10.873,0 0,0 Z"
             style="fill:#4199c4;fill-opacity:1;fill-rule:nonzero;stroke:none"
             id="path74"
             inkscape:connector-curvature="0" /></g><g
           id="g76"
           transform="translate(92.8351,76.3018)"><path
             d="m 0,0 0,32.62 -32.62,0 0,-10.873 21.747,0 L -10.873,0 0,0 Z"
             style="fill:#4199c4;fill-opacity:1;fill-rule:nonzero;stroke:none"
             id="path78"
             inkscape:connector-curvature="0" /></g><g
           id="g80"><g
             id="g82" /><g
             id="g100"><g
               clip-path="url(#clipPath84)"
               id="g102"
               style="opacity:0.44999701"><g
                 id="g104"><g
                   clip-path="url(#clipPath88)"
                   id="g106"><g
                     id="g108"><g
                       id="g110"><path
                         d="m 54.778,70.865 0,0 0,0 16.31,9.416 -16.31,9.417 -16.31,-9.417 0,0 16.31,-9.416 z"
                         style="fill:url(#linearGradient92);stroke:none"
                         id="path112"
                         inkscape:connector-curvature="0" /></g></g></g></g></g></g></g></g></g><g
       id="g114"
       transform="translate(71.0373,61.4572)"><path
         d="M 0,0 -16.295,-9.408 -32.59,0 l 0,18.815 L -16.295,9.408 0,0 Z"
         style="fill:#4199c4;fill-opacity:1;fill-rule:nonzero;stroke:none"
         id="path116"
         inkscape:connector-curvature="0" /></g><g
       id="g118"
       transform="translate(54.7425,70.865)"><path
         d="m 0,0 0,0 0.001,0 16.294,9.408 -16.294,9.407 -16.295,-9.407 0,-10e-4 L 0,0 Z"
         style="fill:#4199c4;fill-opacity:1;fill-rule:nonzero;stroke:none"
         id="path120"
         inkscape:connector-curvature="0" /></g><g
       id="g122"
       transform="translate(49.311,108.8867)"><path
         d="m 0,0 -32.59,0 0,-32.59 10.863,0 0,21.727 21.727,0 L 0,0 Z"
         style="fill:#4199c4;fill-opacity:1;fill-rule:nonzero;stroke:none"
         id="path124"
         inkscape:connector-curvature="0" /></g><g
       id="g126"
       transform="translate(60.1745,32.8433)"><path
         d="m 0,0 32.59,0 0,32.59 -10.863,0 0,-21.727 L 0,10.863 0,0 Z"
         style="fill:#4199c4;fill-opacity:1;fill-rule:nonzero;stroke:none"
         id="path128"
         inkscape:connector-curvature="0" /></g><g
       id="g130"
       transform="translate(16.721,65.4332)"><path
         d="m 0,0 0,-32.59 32.59,0 0,10.863 -21.727,0 L 10.863,0 0,0 Z"
         style="fill:#4199c4;fill-opacity:1;fill-rule:nonzero;stroke:none"
         id="path132"
         inkscape:connector-curvature="0" /></g><g
       id="g134"
       transform="translate(92.7645,76.2968)"><path
         d="m 0,0 0,32.59 -32.59,0 0,-10.863 21.727,0 L -10.863,0 0,0 Z"
         style="fill:#4199c4;fill-opacity:1;fill-rule:nonzero;stroke:none"
         id="path136"
         inkscape:connector-curvature="0" /></g><g
       id="g138"
       transform="translate(-1.5791644,-150.8102)"><g
         id="g140"
         clip-path="url(#clipPath142)"><g
           id="g146"
           transform="translate(109.0686,78.6087)"><path
             d="m 0,0 c 0,-0.939 0.026,-1.846 0.079,-2.721 0.052,-0.874 0.13,-1.683 0.235,-2.426 0.103,-0.744 0.234,-1.397 0.391,-1.958 0.156,-0.561 0.339,-0.998 0.548,-1.31 0.313,-0.444 0.763,-0.719 1.35,-0.822 0.587,-0.105 1.376,-0.157 2.368,-0.157 1.044,0 1.853,0.052 2.427,0.157 0.574,0.103 1.018,0.378 1.331,0.822 0.209,0.312 0.392,0.749 0.548,1.31 0.157,0.561 0.287,1.214 0.392,1.958 0.103,0.743 0.182,1.552 0.234,2.426 C 9.955,-1.846 9.981,-0.939 9.981,0 9.981,0.939 9.955,1.846 9.903,2.72 9.851,3.594 9.772,4.403 9.669,5.147 9.564,5.891 9.434,6.543 9.277,7.105 9.121,7.666 8.938,8.103 8.729,8.416 8.416,8.859 7.972,9.133 7.398,9.238 6.824,9.342 6.041,9.394 5.05,9.394 4.005,9.394 3.19,9.342 2.603,9.238 2.016,9.133 1.566,8.859 1.253,8.416 1.044,8.103 0.861,7.666 0.705,7.105 0.548,6.543 0.417,5.891 0.314,5.147 0.209,4.403 0.131,3.594 0.079,2.72 0.026,1.846 0,0.939 0,0 m 15.422,0 c 0,-2.505 -0.228,-4.75 -0.684,-6.732 -0.458,-1.984 -1.116,-3.484 -1.977,-4.501 -0.836,-0.993 -1.873,-1.651 -3.112,-1.977 -1.24,-0.326 -2.812,-0.49 -4.717,-0.49 -1.905,0 -3.464,0.164 -4.677,0.49 -1.214,0.326 -2.238,0.984 -3.073,1.977 -0.835,1.017 -1.482,2.517 -1.938,4.501 -0.457,1.982 -0.685,4.227 -0.685,6.732 0,2.505 0.228,4.749 0.685,6.732 0.456,1.983 1.103,3.484 1.938,4.502 0.835,0.992 1.879,1.65 3.132,1.977 1.252,0.326 2.831,0.489 4.736,0.489 1.904,0 3.457,-0.17 4.658,-0.509 1.2,-0.34 2.217,-0.992 3.053,-1.957 C 13.622,10.216 14.28,8.715 14.738,6.732 15.194,4.749 15.422,2.505 15.422,0"
             style="fill:#626262;fill-opacity:1;fill-rule:nonzero;stroke:none"
             id="path148"
             inkscape:connector-curvature="0" /></g><g
           id="g150"
           transform="translate(134.3935,69.4495)"><path
             d="m 0,0 c 0,-0.235 0.104,-0.365 0.314,-0.392 0.364,-0.078 0.743,-0.123 1.134,-0.136 0.392,-0.014 0.77,-0.02 1.136,-0.02 0.887,0 1.63,0.098 2.231,0.294 C 5.414,-0.059 5.897,0.3 6.263,0.822 6.628,1.343 6.895,2.068 7.065,2.994 7.235,3.92 7.32,5.114 7.32,6.576 7.32,7.985 7.248,9.126 7.105,10 6.961,10.875 6.707,11.566 6.341,12.075 5.975,12.584 5.48,12.93 4.854,13.113 4.228,13.294 3.445,13.386 2.505,13.386 2.009,13.386 1.591,13.367 1.253,13.328 0.913,13.289 0.6,13.243 0.314,13.191 0.182,13.165 0.098,13.106 0.059,13.015 0.02,12.923 0,12.825 0,12.721 L 0,0 Z m 2.545,17.183 c 2.035,0 3.705,-0.195 5.01,-0.587 1.304,-0.391 2.335,-1.005 3.092,-1.839 0.757,-0.836 1.278,-1.925 1.566,-3.269 C 12.5,10.143 12.643,8.52 12.643,6.615 12.643,4.761 12.48,3.157 12.154,1.8 11.828,0.443 11.279,-0.672 10.51,-1.546 9.74,-2.421 8.735,-3.073 7.496,-3.503 6.256,-3.934 4.736,-4.149 2.936,-4.149 2.492,-4.149 2.002,-4.136 1.468,-4.11 0.933,-4.084 0.548,-4.071 0.314,-4.071 0.104,-4.071 0,-4.175 0,-4.384 l 0,-6.419 c 0,-0.261 -0.131,-0.392 -0.391,-0.392 l -4.345,0 c -0.261,0 -0.391,0.131 -0.391,0.392 l 0,26.734 c 0,0.182 0.143,0.326 0.43,0.43 0.366,0.131 0.835,0.248 1.409,0.352 0.574,0.105 1.188,0.19 1.84,0.255 0.652,0.065 1.324,0.118 2.016,0.156 0.691,0.04 1.35,0.059 1.977,0.059"
             style="fill:#626262;fill-opacity:1;fill-rule:nonzero;stroke:none"
             id="path152"
             inkscape:connector-curvature="0" /></g><g
           id="g154"
           transform="translate(152.3209,65.3004)"><path
             d="m 0,0 c -0.261,0 -0.392,0.131 -0.392,0.392 l 0,20.158 c 0,0.26 0.131,0.391 0.392,0.391 l 4.345,0 c 0.261,0 0.391,-0.131 0.391,-0.391 l 0,-20.158 C 4.736,0.131 4.606,0 4.345,0 L 0,0 Z m -0.117,24.425 c -0.262,0 -0.392,0.13 -0.392,0.391 l 0,3.875 c 0,0.26 0.13,0.392 0.392,0.392 l 4.579,0 c 0.261,0 0.392,-0.132 0.392,-0.392 l 0,-3.875 c 0,-0.261 -0.131,-0.391 -0.392,-0.391 l -4.579,0 z"
             style="fill:#626262;fill-opacity:1;fill-rule:nonzero;stroke:none"
             id="path156"
             inkscape:connector-curvature="0" /></g><g
           id="g158"
           transform="translate(175.0625,65.3004)"><path
             d="m 0,0 c -0.261,0 -0.391,0.131 -0.391,0.392 l 0,13.229 c 0,0.73 -0.052,1.344 -0.157,1.84 -0.104,0.495 -0.293,0.881 -0.567,1.155 -0.274,0.274 -0.659,0.47 -1.155,0.587 -0.496,0.118 -1.135,0.176 -1.918,0.176 -1.201,0 -2.127,-0.078 -2.779,-0.235 -0.261,-0.078 -0.392,-0.209 -0.392,-0.391 l 0,-16.361 C -7.359,0.131 -7.489,0 -7.75,0 l -4.345,0 c -0.261,0 -0.391,0.131 -0.391,0.392 l 0,19.727 c 0,0.208 0.13,0.339 0.391,0.391 0.522,0.079 1.122,0.17 1.801,0.275 0.678,0.103 1.382,0.195 2.113,0.274 0.731,0.078 1.455,0.143 2.173,0.195 0.717,0.052 1.389,0.078 2.016,0.078 1.722,0 3.144,-0.123 4.266,-0.371 1.122,-0.249 2.016,-0.66 2.682,-1.233 0.665,-0.575 1.128,-1.338 1.389,-2.29 0.261,-0.953 0.391,-2.147 0.391,-3.582 l 0,-13.464 C 4.736,0.131 4.606,0 4.345,0 L 0,0 Z"
             style="fill:#626262;fill-opacity:1;fill-rule:nonzero;stroke:none"
             id="path160"
             inkscape:connector-curvature="0" /></g><g
           id="g162"
           transform="translate(209.2403,91.5256)"><path
             d="m 0,0 c -0.182,-0.313 -0.457,-0.757 -0.822,-1.331 -0.365,-0.574 -0.776,-1.207 -1.233,-1.898 -0.456,-0.692 -0.933,-1.423 -1.428,-2.192 -0.496,-0.771 -0.986,-1.527 -1.468,-2.271 -0.484,-0.743 -0.934,-1.435 -1.351,-2.074 -0.417,-0.64 -0.77,-1.168 -1.057,-1.585 -0.182,-0.261 -0.293,-0.444 -0.332,-0.549 -0.039,-0.104 -0.059,-0.209 -0.059,-0.312 0,-0.262 0.118,-0.562 0.352,-0.9 0.287,-0.445 0.659,-1.025 1.116,-1.742 0.456,-0.719 0.946,-1.495 1.468,-2.329 0.521,-0.836 1.057,-1.703 1.604,-2.604 0.549,-0.9 1.063,-1.748 1.547,-2.543 0.482,-0.797 0.9,-1.507 1.252,-2.134 0.352,-0.626 0.607,-1.083 0.763,-1.37 0,-0.261 -0.117,-0.391 -0.352,-0.391 l -5.088,0 c -0.157,0 -0.281,0.039 -0.372,0.117 -0.092,0.078 -0.164,0.157 -0.216,0.235 -0.312,0.574 -0.737,1.357 -1.272,2.348 -0.534,0.992 -1.109,2.023 -1.722,3.092 -0.613,1.07 -1.207,2.101 -1.781,3.093 -0.574,0.991 -1.044,1.787 -1.409,2.388 -0.131,0.208 -0.274,0.339 -0.431,0.391 -0.156,0.052 -0.431,0.078 -0.821,0.078 -0.262,0 -0.392,-0.092 -0.392,-0.274 l 0,-11.077 c 0,-0.261 -0.131,-0.391 -0.392,-0.391 l -4.462,0 c -0.261,0 -0.391,0.13 -0.391,0.391 l 0,25.834 c 0,0.26 0.13,0.392 0.391,0.392 l 4.462,0 c 0.261,0 0.392,-0.132 0.392,-0.392 l 0,-10.216 c 0,-0.183 0.157,-0.275 0.47,-0.275 0.73,0 1.148,0.092 1.253,0.275 0.39,0.626 0.873,1.422 1.447,2.387 0.574,0.965 1.155,1.944 1.742,2.936 0.587,0.992 1.136,1.931 1.644,2.819 0.509,0.886 0.907,1.578 1.194,2.074 0.104,0.26 0.261,0.392 0.47,0.392 l 4.971,0 C -0.104,0.392 0,0.26 0,0"
             style="fill:#626262;fill-opacity:1;fill-rule:nonzero;stroke:none"
             id="path164"
             inkscape:connector-curvature="0" /></g><g
           id="g166"
           transform="translate(216.4044,77.6693)"><path
             d="m 0,0 c 0,-0.183 0.078,-0.274 0.235,-0.274 l 7.241,0 c 0.156,0 0.268,0.059 0.332,0.176 0.065,0.117 0.099,0.436 0.099,0.959 0,1.487 -0.248,2.616 -0.744,3.386 C 6.667,5.016 5.676,5.401 4.188,5.401 3.327,5.401 2.623,5.265 2.074,4.99 1.526,4.717 1.095,4.338 0.783,3.856 0.47,3.372 0.26,2.799 0.156,2.133 0.052,1.468 0,0.756 0,0 m 11.664,-11.625 c -0.757,-0.366 -1.716,-0.646 -2.877,-0.842 -1.161,-0.195 -2.433,-0.294 -3.816,-0.294 -1.905,0 -3.503,0.255 -4.795,0.764 -1.291,0.509 -2.329,1.233 -3.112,2.173 -0.783,0.939 -1.337,2.074 -1.663,3.405 -0.327,1.331 -0.489,2.818 -0.489,4.462 0,3.523 0.756,6.224 2.269,8.102 1.514,1.879 3.876,2.818 7.086,2.818 1.565,0 2.869,-0.209 3.914,-0.625 1.043,-0.418 1.879,-1.019 2.505,-1.801 0.626,-0.783 1.069,-1.736 1.33,-2.858 0.261,-1.122 0.392,-2.387 0.392,-3.796 0,-1.331 -0.059,-2.219 -0.176,-2.662 -0.118,-0.445 -0.411,-0.666 -0.881,-0.666 l -11.038,0 c -0.157,0 -0.235,-0.078 -0.235,-0.234 0,-1.045 0.124,-1.905 0.372,-2.584 0.248,-0.679 0.607,-1.213 1.076,-1.605 0.47,-0.391 1.057,-0.665 1.762,-0.821 0.704,-0.157 1.513,-0.235 2.427,-0.235 0.991,0 2.009,0.098 3.053,0.293 1.043,0.196 1.865,0.398 2.466,0.607 0.208,0 0.352,-0.065 0.43,-0.196 l 0.274,-3.053 c 0,-0.157 -0.092,-0.274 -0.274,-0.352"
             style="fill:#626262;fill-opacity:1;fill-rule:nonzero;stroke:none"
             id="path168"
             inkscape:connector-curvature="0" /></g><g
           id="g170"
           transform="translate(244.1558,82.3661)"><path
             d="m 0,0 c -0.94,0.157 -1.944,0.235 -3.014,0.235 -0.313,0 -0.692,-0.02 -1.135,-0.059 -0.444,-0.039 -0.823,-0.124 -1.136,-0.254 -0.183,-0.105 -0.274,-0.249 -0.274,-0.43 l 0,-16.166 c 0,-0.314 -0.144,-0.444 -0.43,-0.392 l -4.306,0 c -0.261,0 -0.391,0.131 -0.391,0.392 l 0,19.728 c 0,0.208 0.13,0.338 0.391,0.391 0.992,0.208 2.153,0.397 3.484,0.567 1.331,0.17 2.623,0.255 3.875,0.255 0.652,0 1.213,-0.014 1.683,-0.039 C -0.783,4.202 -0.288,4.162 0.235,4.11 0.391,4.084 0.47,3.979 0.47,3.797 L 0.274,0.196 C 0.274,0.039 0.182,-0.026 0,0"
             style="fill:#626262;fill-opacity:1;fill-rule:nonzero;stroke:none"
             id="path172"
             inkscape:connector-curvature="0" /></g><g
           id="g174"
           transform="translate(254.2533,86.4765)"><path
             d="m 0,0 c 0,-0.157 0.079,-0.235 0.236,-0.235 l 3.64,0 c 0.26,0 0.391,-0.131 0.391,-0.391 l 0,-3.171 c 0,-0.262 -0.131,-0.391 -0.391,-0.391 l -3.64,0 C 0.079,-4.188 0,-4.267 0,-4.423 l 0,-16.362 c 0,-0.261 -0.131,-0.391 -0.391,-0.391 l -4.384,0 c -0.261,0 -0.392,0.13 -0.392,0.391 l 0,16.362 c 0,0.156 -0.078,0.235 -0.234,0.235 l -2.701,0 c -0.261,0 -0.392,0.129 -0.392,0.391 l 0,3.171 c 0,0.26 0.131,0.391 0.392,0.391 l 2.701,0 c 0.156,0 0.234,0.078 0.234,0.235 l 0,1.761 c 0,0.679 0.092,1.363 0.275,2.055 0.182,0.692 0.514,1.317 0.998,1.879 0.482,0.561 1.167,1.018 2.055,1.37 0.887,0.353 2.035,0.529 3.444,0.529 0.705,0 1.37,-0.04 1.996,-0.118 C 4.228,7.398 4.671,7.319 4.932,7.241 5.167,7.188 5.258,7.019 5.207,6.732 L 4.972,4.032 C 4.919,3.822 4.762,3.744 4.502,3.797 4.24,3.849 3.934,3.9 3.582,3.953 3.23,4.005 2.857,4.032 2.467,4.032 1.631,4.032 1.011,3.797 0.607,3.327 0.202,2.857 0,2.243 0,1.487 L 0,0 Z"
             style="fill:#626262;fill-opacity:1;fill-rule:nonzero;stroke:none"
             id="path176"
             inkscape:connector-curvature="0" /></g><g
           id="g178"
           transform="translate(261.7682,65.3004)"><path
             d="m 0,0 c -0.261,0 -0.392,0.131 -0.392,0.392 l 0,20.158 c 0,0.26 0.131,0.391 0.392,0.391 l 4.345,0 c 0.261,0 0.391,-0.131 0.391,-0.391 l 0,-20.158 C 4.736,0.131 4.606,0 4.345,0 L 0,0 Z m -0.117,24.425 c -0.262,0 -0.392,0.13 -0.392,0.391 l 0,3.875 c 0,0.26 0.13,0.392 0.392,0.392 l 4.579,0 c 0.261,0 0.392,-0.132 0.392,-0.392 l 0,-3.875 c 0,-0.261 -0.131,-0.391 -0.392,-0.391 l -4.579,0 z"
             style="fill:#626262;fill-opacity:1;fill-rule:nonzero;stroke:none"
             id="path180"
             inkscape:connector-curvature="0" /></g><g
           id="g182"
           transform="translate(151.3738,50.7157)"><path
             d="m 0,0 c -0.108,0 -0.151,0.051 -0.13,0.154 l 0.114,0.711 c 0.021,0.103 0.077,0.153 0.169,0.153 l 5.866,0 c 0.117,0 0.165,-0.05 0.145,-0.153 L 6.049,0.154 C 6.029,0.051 5.967,0 5.865,0 L 0,0 Z"
             style="fill:#626262;fill-opacity:1;fill-rule:nonzero;stroke:none"
             id="path184"
             inkscape:connector-curvature="0" /></g><g
           id="g186"
           transform="translate(166.4585,50.2408)"><path
             d="m 0,0 c 0.01,0.066 -0.015,0.1 -0.076,0.1 l -1.394,0 c -0.408,0 -0.735,-0.029 -0.98,-0.088 -0.245,-0.059 -0.432,-0.178 -0.559,-0.357 -0.127,-0.173 -0.227,-0.422 -0.299,-0.746 -0.071,-0.324 -0.107,-0.634 -0.107,-0.931 0,-0.178 0.026,-0.32 0.076,-0.424 0.052,-0.105 0.14,-0.188 0.265,-0.249 0.125,-0.062 0.295,-0.102 0.509,-0.123 0.215,-0.02 0.48,-0.031 0.796,-0.031 0.302,0 0.597,0.013 0.885,0.039 0.289,0.025 0.443,0.074 0.463,0.146 L 0,0 Z m -1.363,3.645 c -0.28,0 -0.591,-0.017 -0.93,-0.049 C -2.633,3.562 -2.951,3.52 -3.247,3.469 -3.349,3.449 -3.4,3.479 -3.4,3.561 l 0,0.788 c 0,0.093 0.046,0.154 0.138,0.185 0.306,0.086 0.657,0.155 1.053,0.206 0.396,0.051 0.862,0.077 1.398,0.077 0.858,0 1.503,-0.15 1.937,-0.448 C 1.56,4.07 1.777,3.576 1.777,2.887 1.777,2.688 1.759,2.479 1.723,2.259 L 0.805,-3.385 C 0.784,-3.563 0.543,-3.691 0.081,-3.768 c -0.463,-0.076 -1.058,-0.114 -1.788,-0.114 -0.587,0 -1.081,0.033 -1.482,0.099 -0.401,0.067 -0.725,0.17 -0.973,0.311 -0.247,0.14 -0.426,0.324 -0.535,0.551 -0.11,0.227 -0.165,0.491 -0.165,0.793 0,0.479 0.06,0.931 0.18,1.355 0.12,0.424 0.318,0.765 0.593,1.026 0.23,0.219 0.519,0.379 0.87,0.478 0.349,0.1 0.779,0.18 1.289,0.241 L 0.093,1.21 C 0.158,1.22 0.197,1.251 0.207,1.302 L 0.33,2.045 c 0.03,0.188 0.046,0.355 0.046,0.497 0,0.419 -0.144,0.708 -0.429,0.866 -0.286,0.158 -0.723,0.237 -1.31,0.237"
             style="fill:#626262;fill-opacity:1;fill-rule:nonzero;stroke:none"
             id="path188"
             inkscape:connector-curvature="0" /></g><g
           id="g190"
           transform="translate(171.4589,48.9087)"><path
             d="m 0,0 c -0.021,-0.154 -0.038,-0.287 -0.053,-0.402 -0.016,-0.115 -0.024,-0.216 -0.024,-0.302 0,-0.24 0.053,-0.41 0.158,-0.51 0.104,-0.1 0.307,-0.149 0.608,-0.149 l 0.644,0 c 0.071,0 0.107,-0.031 0.107,-0.092 L 1.287,-2.274 C 1.266,-2.346 1.24,-2.387 1.21,-2.397 1.179,-2.407 1.122,-2.417 1.037,-2.427 0.953,-2.437 0.859,-2.448 0.754,-2.458 0.65,-2.468 0.543,-2.476 0.433,-2.481 0.323,-2.486 0.219,-2.489 0.123,-2.489 c -0.47,0 -0.862,0.093 -1.176,0.28 -0.313,0.186 -0.471,0.516 -0.471,0.991 0,0.163 0.008,0.311 0.023,0.444 0.015,0.133 0.041,0.304 0.077,0.514 l 1.455,9.235 c 0.02,0.101 0.084,0.153 0.191,0.153 l 1.08,0 c 0.102,0 0.143,-0.052 0.123,-0.153 L 0,0 Z"
             style="fill:#626262;fill-opacity:1;fill-rule:nonzero;stroke:none"
             id="path192"
             inkscape:connector-curvature="0" /></g><g
           id="g194"
           transform="translate(175.6938,48.9087)"><path
             d="m 0,0 c -0.021,-0.154 -0.038,-0.287 -0.053,-0.402 -0.016,-0.115 -0.024,-0.216 -0.024,-0.302 0,-0.24 0.053,-0.41 0.158,-0.51 0.104,-0.1 0.307,-0.149 0.608,-0.149 l 0.644,0 c 0.071,0 0.107,-0.031 0.107,-0.092 L 1.287,-2.274 C 1.266,-2.346 1.24,-2.387 1.21,-2.397 1.179,-2.407 1.122,-2.417 1.037,-2.427 0.953,-2.437 0.859,-2.448 0.754,-2.458 0.65,-2.468 0.543,-2.476 0.433,-2.481 0.323,-2.486 0.219,-2.489 0.123,-2.489 c -0.47,0 -0.862,0.093 -1.176,0.28 -0.313,0.186 -0.471,0.516 -0.471,0.991 0,0.163 0.008,0.311 0.023,0.444 0.015,0.133 0.041,0.304 0.077,0.514 l 1.455,9.235 c 0.02,0.101 0.084,0.153 0.191,0.153 l 1.08,0 c 0.102,0 0.143,-0.052 0.123,-0.153 L 0,0 Z"
             style="fill:#626262;fill-opacity:1;fill-rule:nonzero;stroke:none"
             id="path196"
             inkscape:connector-curvature="0" /></g><g
           id="g198"
           transform="translate(180.3728,48.9087)"><path
             d="m 0,0 c -0.021,-0.154 -0.038,-0.287 -0.054,-0.402 -0.015,-0.115 -0.023,-0.216 -0.023,-0.302 0,-0.24 0.052,-0.41 0.157,-0.51 0.104,-0.1 0.31,-0.149 0.616,-0.149 l 0.636,0 c 0.077,0 0.115,-0.031 0.115,-0.092 L 1.286,-2.274 C 1.266,-2.346 1.24,-2.387 1.209,-2.397 1.179,-2.407 1.122,-2.417 1.037,-2.427 0.953,-2.437 0.859,-2.448 0.754,-2.458 0.649,-2.468 0.542,-2.476 0.432,-2.481 0.323,-2.486 0.222,-2.489 0.13,-2.489 c -0.47,0 -0.862,0.093 -1.176,0.28 -0.314,0.186 -0.47,0.516 -0.47,0.991 0,0.163 0.007,0.311 0.022,0.444 0.016,0.133 0.038,0.304 0.069,0.514 l 0.82,5.092 c 0.01,0.061 -0.018,0.092 -0.084,0.092 l -1.272,0 c -0.112,0 -0.158,0.053 -0.137,0.161 l 0.122,0.75 c 0.02,0.107 0.079,0.161 0.176,0.161 l 1.271,0 c 0.072,0 0.108,0.03 0.108,0.092 l 0.313,1.96 c 0.021,0.102 0.085,0.153 0.192,0.153 l 1.08,0 c 0.102,0 0.143,-0.051 0.122,-0.153 L 0.972,6.088 C 0.972,6.026 1,5.996 1.057,5.996 l 1.47,0 c 0.117,0 0.165,-0.054 0.145,-0.161 L 2.542,5.085 C 2.522,4.977 2.466,4.924 2.374,4.924 l -1.478,0 C 0.835,4.924 0.798,4.893 0.788,4.832 L 0,0 Z"
             style="fill:#626262;fill-opacity:1;fill-rule:nonzero;stroke:none"
             id="path200"
             inkscape:connector-curvature="0" /></g><g
           id="g202"
           transform="translate(191.5145,51.3133)"><path
             d="M 0,0 C 0.051,0 0.092,0.005 0.123,0.015 0.154,0.025 0.182,0.056 0.207,0.107 0.258,0.255 0.296,0.449 0.322,0.689 0.347,0.929 0.36,1.138 0.36,1.317 0.36,1.536 0.342,1.729 0.306,1.895 0.271,2.061 0.203,2.201 0.103,2.316 0.004,2.431 -0.14,2.52 -0.329,2.584 -0.518,2.648 -0.763,2.68 -1.064,2.68 -1.641,2.68 -2.07,2.511 -2.35,2.174 -2.56,1.945 -2.727,1.653 -2.852,1.298 -2.977,0.943 -3.078,0.546 -3.155,0.107 -3.176,0.036 -3.147,0 -3.071,0 L 0,0 Z m -1.723,-4.954 c -0.627,0 -1.141,0.075 -1.539,0.225 -0.398,0.151 -0.71,0.361 -0.934,0.632 -0.225,0.27 -0.38,0.592 -0.464,0.965 -0.083,0.372 -0.126,0.778 -0.126,1.217 0,0.322 0.03,0.705 0.089,1.149 0.058,0.444 0.15,0.897 0.275,1.359 0.125,0.462 0.287,0.902 0.486,1.318 0.199,0.415 0.439,0.766 0.72,1.052 0.26,0.25 0.574,0.443 0.942,0.578 0.368,0.135 0.791,0.203 1.271,0.203 0.48,0 0.887,-0.052 1.222,-0.157 C 0.553,3.483 0.827,3.336 1.042,3.147 1.256,2.958 1.41,2.734 1.505,2.473 1.599,2.213 1.647,1.922 1.647,1.6 1.647,1.371 1.631,1.098 1.601,0.785 1.57,0.471 1.511,0.094 1.425,-0.345 1.373,-0.651 1.308,-0.846 1.229,-0.931 1.15,-1.015 1.044,-1.057 0.911,-1.057 l -4.173,0 c -0.062,0 -0.097,-0.036 -0.107,-0.107 -0.036,-0.199 -0.059,-0.387 -0.069,-0.563 -0.01,-0.176 -0.016,-0.338 -0.016,-0.486 0,-0.567 0.148,-0.983 0.441,-1.248 0.293,-0.266 0.79,-0.398 1.489,-0.398 0.368,0 0.709,0.03 1.022,0.091 0.314,0.061 0.601,0.141 0.862,0.238 0.051,0.02 0.098,0.025 0.142,0.015 0.043,-0.01 0.07,-0.041 0.08,-0.092 L 0.521,-4.365 c 0,-0.092 -0.049,-0.158 -0.145,-0.199 -0.312,-0.148 -0.654,-0.25 -1.027,-0.306 -0.373,-0.056 -0.73,-0.084 -1.072,-0.084"
             style="fill:#626262;fill-opacity:1;fill-rule:nonzero;stroke:none"
             id="path204"
             inkscape:connector-curvature="0" /></g><g
           id="g206"
           transform="translate(198.1767,53.9776)"><path
             d="M 0,0 C -0.112,0 -0.275,-0.008 -0.49,-0.023 -0.704,-0.038 -0.901,-0.074 -1.08,-0.13 -1.197,-0.16 -1.261,-0.217 -1.271,-0.298 l -1.11,-7.014 c -0.021,-0.103 -0.08,-0.154 -0.176,-0.154 l -1.065,0 c -0.113,0 -0.159,0.051 -0.138,0.154 l 1.256,7.91 c 0.01,0.081 0.067,0.132 0.169,0.153 0.448,0.117 0.885,0.202 1.309,0.252 0.424,0.052 0.781,0.077 1.072,0.077 0.255,0 0.46,-0.005 0.617,-0.015 C 0.818,1.055 0.97,1.039 1.118,1.019 1.159,1.009 1.174,0.973 1.164,0.911 L 0.926,-0.015 C 0.906,-0.066 0.87,-0.086 0.82,-0.076 0.63,-0.046 0.474,-0.025 0.348,-0.015 0.223,-0.005 0.107,0 0,0"
             style="fill:#626262;fill-opacity:1;fill-rule:nonzero;stroke:none"
             id="path208"
             inkscape:connector-curvature="0" /></g><g
           id="g210"
           transform="translate(208.6139,46.6651)"><path
             d="m 0,0 c -0.021,-0.102 -0.079,-0.153 -0.176,-0.153 l -1.08,0 c -0.112,0 -0.158,0.051 -0.138,0.153 l 1.003,6.294 C -0.37,6.396 -0.36,6.478 -0.36,6.539 -0.35,6.846 -0.465,7.041 -0.704,7.125 -0.945,7.21 -1.343,7.251 -1.9,7.251 -2.159,7.251 -2.39,7.237 -2.588,7.21 -2.788,7.182 -2.977,7.147 -3.155,7.106 -3.267,7.075 -3.329,7.019 -3.339,6.938 L -4.442,0 c -0.02,-0.102 -0.076,-0.153 -0.168,-0.153 l -1.08,0 c -0.117,0 -0.166,0.051 -0.145,0.153 l 1.255,7.895 c 0.021,0.092 0.077,0.148 0.169,0.169 0.138,0.03 0.319,0.065 0.544,0.102 0.224,0.039 0.468,0.076 0.731,0.111 0.263,0.036 0.53,0.065 0.8,0.085 0.271,0.02 0.521,0.03 0.751,0.03 0.459,0 0.883,-0.022 1.271,-0.068 C 0.074,8.277 0.393,8.17 0.643,8.002 0.694,7.971 0.75,7.961 0.811,7.971 c 0.44,0.158 0.838,0.269 1.195,0.33 0.357,0.061 0.73,0.091 1.118,0.091 0.47,0 0.864,-0.047 1.183,-0.141 C 4.626,8.156 4.882,8.024 5.073,7.852 5.264,7.682 5.402,7.476 5.486,7.236 5.571,6.996 5.613,6.728 5.613,6.432 5.613,6.32 5.608,6.206 5.597,6.091 5.587,5.977 5.572,5.86 5.551,5.743 L 4.641,0 C 4.62,-0.102 4.564,-0.153 4.472,-0.153 l -1.087,0 C 3.272,-0.153 3.226,-0.102 3.247,0 l 0.88,5.521 c 0.021,0.097 0.036,0.195 0.046,0.295 0.011,0.099 0.015,0.175 0.015,0.225 0,0.22 -0.024,0.407 -0.072,0.564 C 4.067,6.76 3.981,6.885 3.855,6.979 3.731,7.074 3.555,7.143 3.331,7.186 3.106,7.23 2.823,7.251 2.481,7.251 2.246,7.251 2.038,7.237 1.857,7.21 1.675,7.182 1.495,7.147 1.317,7.106 1.266,7.086 1.218,7.065 1.175,7.045 1.132,7.025 1.105,6.988 1.095,6.938 L 0,0 Z"
             style="fill:#626262;fill-opacity:1;fill-rule:nonzero;stroke:none"
             id="path212"
             inkscape:connector-curvature="0" /></g><g
           id="g214"
           transform="translate(221.2721,56.5508)"><path
             d="m 0,0 c -0.118,0 -0.166,0.051 -0.146,0.154 l 0.192,1.148 c 0.02,0.102 0.084,0.153 0.191,0.153 l 1.141,0 c 0.108,0 0.148,-0.051 0.123,-0.153 L 1.317,0.154 C 1.297,0.051 1.238,0 1.141,0 L 0,0 Z m -3.025,0 c -0.118,0 -0.166,0.051 -0.146,0.154 l 0.192,1.148 c 0.021,0.102 0.082,0.153 0.184,0.153 l 1.148,0 c 0.102,0 0.144,-0.051 0.123,-0.153 L -1.708,0.154 C -1.728,0.051 -1.787,0 -1.884,0 l -1.141,0 z m 1.907,-8.676 c 0.209,0.199 0.389,0.481 0.54,0.846 0.15,0.365 0.273,0.757 0.367,1.175 0.095,0.419 0.164,0.835 0.207,1.249 0.043,0.413 0.065,0.771 0.065,1.072 0,0.306 -0.024,0.584 -0.073,0.834 -0.048,0.25 -0.118,0.44 -0.21,0.567 -0.108,0.133 -0.252,0.229 -0.433,0.287 -0.181,0.059 -0.481,0.089 -0.9,0.089 -0.275,0 -0.506,-0.03 -0.693,-0.089 C -2.434,-2.704 -2.601,-2.8 -2.749,-2.933 -2.958,-3.132 -3.136,-3.42 -3.282,-3.798 -3.427,-4.176 -3.544,-4.582 -3.634,-5.015 -3.723,-5.45 -3.788,-5.881 -3.829,-6.31 -3.87,-6.739 -3.89,-7.099 -3.89,-7.389 c 0,-0.291 0.02,-0.549 0.061,-0.774 0.041,-0.225 0.102,-0.395 0.184,-0.513 0.117,-0.132 0.27,-0.228 0.459,-0.287 0.189,-0.058 0.493,-0.088 0.912,-0.088 0.27,0 0.494,0.03 0.67,0.088 0.176,0.059 0.338,0.155 0.486,0.287 m -4.174,1.555 c 0,0.346 0.024,0.736 0.073,1.167 0.049,0.431 0.13,0.873 0.245,1.325 0.115,0.452 0.27,0.886 0.464,1.302 0.194,0.416 0.441,0.782 0.742,1.099 0.312,0.301 0.653,0.498 1.026,0.593 0.373,0.095 0.805,0.142 1.295,0.142 0.627,0 1.129,-0.063 1.505,-0.188 0.374,-0.125 0.666,-0.338 0.876,-0.639 0.169,-0.23 0.3,-0.526 0.395,-0.888 C 1.423,-3.571 1.47,-3.992 1.47,-4.472 1.47,-4.829 1.445,-5.237 1.394,-5.697 1.342,-6.156 1.255,-6.619 1.133,-7.083 1.011,-7.547 0.856,-7.989 0.67,-8.408 0.483,-8.826 0.253,-9.166 -0.023,-9.426 c -0.311,-0.307 -0.655,-0.511 -1.03,-0.613 -0.375,-0.102 -0.821,-0.153 -1.337,-0.153 -0.627,0 -1.129,0.065 -1.504,0.195 -0.375,0.131 -0.673,0.346 -0.892,0.647 -0.158,0.23 -0.282,0.536 -0.371,0.919 -0.09,0.383 -0.135,0.82 -0.135,1.31"
             style="fill:#626262;fill-opacity:1;fill-rule:nonzero;stroke:none"
             id="path216"
             inkscape:connector-curvature="0" /></g><g
           id="g218"
           transform="translate(229.7331,53.5568)"><path
             d="m 0,0 c 0.01,0.051 0.013,0.097 0.008,0.138 -0.005,0.041 -0.033,0.071 -0.085,0.092 -0.096,0.03 -0.25,0.06 -0.459,0.088 -0.21,0.027 -0.439,0.042 -0.689,0.042 -0.47,0 -0.846,-0.045 -1.13,-0.134 -0.283,-0.09 -0.511,-0.26 -0.685,-0.51 -0.138,-0.209 -0.262,-0.488 -0.371,-0.838 -0.11,-0.35 -0.202,-0.719 -0.276,-1.106 -0.074,-0.388 -0.129,-0.767 -0.165,-1.137 -0.036,-0.371 -0.053,-0.678 -0.053,-0.923 0,-0.24 0.032,-0.438 0.096,-0.594 0.063,-0.155 0.165,-0.278 0.306,-0.367 0.14,-0.09 0.323,-0.152 0.547,-0.188 0.225,-0.036 0.493,-0.053 0.804,-0.053 0.536,0 0.909,0.03 1.119,0.091 0.091,0.02 0.148,0.053 0.168,0.096 0.02,0.044 0.036,0.096 0.046,0.157 L 0,0 Z M 0.268,-6.938 C 0.171,-7.5 0.047,-7.966 -0.103,-8.339 c -0.151,-0.373 -0.351,-0.674 -0.601,-0.904 -0.251,-0.229 -0.564,-0.392 -0.942,-0.486 -0.378,-0.094 -0.833,-0.142 -1.363,-0.142 -0.577,0 -1.122,0.032 -1.635,0.096 -0.513,0.064 -0.905,0.147 -1.175,0.249 -0.083,0.036 -0.108,0.104 -0.077,0.206 l 0.207,0.782 c 0.02,0.056 0.053,0.089 0.099,0.099 0.046,0.01 0.095,0.005 0.146,-0.015 0.117,-0.046 0.273,-0.086 0.467,-0.123 0.194,-0.035 0.401,-0.068 0.62,-0.099 0.219,-0.031 0.439,-0.054 0.659,-0.069 0.219,-0.015 0.423,-0.023 0.612,-0.023 0.403,0 0.727,0.036 0.969,0.107 0.242,0.072 0.434,0.192 0.574,0.36 0.14,0.168 0.245,0.388 0.314,0.659 0.069,0.271 0.134,0.61 0.196,1.018 0.01,0.077 -0.021,0.115 -0.092,0.115 -0.368,-0.036 -0.766,-0.054 -1.195,-0.054 -0.536,0 -0.992,0.04 -1.367,0.119 -0.375,0.079 -0.68,0.208 -0.915,0.387 -0.235,0.178 -0.405,0.415 -0.509,0.708 -0.105,0.294 -0.157,0.652 -0.157,1.076 0,0.347 0.02,0.735 0.061,1.164 0.041,0.429 0.109,0.86 0.203,1.294 0.094,0.434 0.226,0.85 0.394,1.248 0.169,0.398 0.378,0.738 0.628,1.019 0.312,0.368 0.704,0.634 1.176,0.8 0.472,0.166 1.052,0.249 1.742,0.249 0.373,0 0.758,-0.018 1.156,-0.054 C 0.49,1.412 0.924,1.345 1.394,1.248 1.501,1.227 1.549,1.177 1.539,1.095 L 0.268,-6.938 Z"
             style="fill:#626262;fill-opacity:1;fill-rule:nonzero;stroke:none"
             id="path220"
             inkscape:connector-curvature="0" /></g><g
           id="g222"
           transform="translate(235.1007,54.9048)"><path
             d="m 0,0 c 0.112,0 0.158,-0.054 0.138,-0.161 l -0.85,-5.284 c -0.021,-0.148 -0.038,-0.282 -0.053,-0.402 -0.016,-0.12 -0.024,-0.236 -0.024,-0.348 0,-0.439 0.12,-0.743 0.36,-0.911 0.241,-0.169 0.654,-0.253 1.241,-0.253 0.219,0 0.426,0.01 0.62,0.031 0.194,0.02 0.381,0.053 0.559,0.099 0.112,0.03 0.174,0.086 0.184,0.169 l 1.103,6.899 C 3.298,-0.054 3.354,0 3.446,0 L 4.525,0 C 4.643,0 4.691,-0.054 4.671,-0.161 L 3.415,-8.064 C 3.405,-8.145 3.341,-8.204 3.224,-8.24 2.335,-8.444 1.511,-8.546 0.75,-8.546 c -1.056,0 -1.814,0.141 -2.274,0.421 -0.459,0.281 -0.689,0.794 -0.689,1.539 0,0.281 0.03,0.61 0.092,0.988 l 0.866,5.437 C -1.236,-0.054 -1.179,0 -1.088,0 L 0,0 Z"
             style="fill:#626262;fill-opacity:1;fill-rule:nonzero;stroke:none"
             id="path224"
             inkscape:connector-curvature="0" /></g><g
           id="g226"
           transform="translate(242.8888,48.9087)"><path
             d="m 0,0 c -0.021,-0.154 -0.038,-0.287 -0.053,-0.402 -0.016,-0.115 -0.024,-0.216 -0.024,-0.302 0,-0.24 0.053,-0.41 0.158,-0.51 0.104,-0.1 0.307,-0.149 0.608,-0.149 l 0.644,0 c 0.071,0 0.107,-0.031 0.107,-0.092 L 1.287,-2.274 C 1.266,-2.346 1.24,-2.387 1.21,-2.397 1.179,-2.407 1.122,-2.417 1.037,-2.427 0.953,-2.437 0.859,-2.448 0.754,-2.458 0.65,-2.468 0.543,-2.476 0.433,-2.481 0.323,-2.486 0.219,-2.489 0.123,-2.489 c -0.47,0 -0.862,0.093 -1.176,0.28 -0.313,0.186 -0.471,0.516 -0.471,0.991 0,0.163 0.008,0.311 0.023,0.444 0.015,0.133 0.041,0.304 0.077,0.514 l 1.455,9.235 c 0.02,0.101 0.084,0.153 0.191,0.153 l 1.08,0 c 0.102,0 0.143,-0.052 0.123,-0.153 L 0,0 Z"
             style="fill:#626262;fill-opacity:1;fill-rule:nonzero;stroke:none"
             id="path228"
             inkscape:connector-curvature="0" /></g><g
           id="g230"
           transform="translate(250.4006,51.3133)"><path
             d="M 0,0 C 0.051,0 0.092,0.005 0.123,0.015 0.154,0.025 0.182,0.056 0.207,0.107 0.258,0.255 0.296,0.449 0.322,0.689 0.347,0.929 0.36,1.138 0.36,1.317 0.36,1.536 0.342,1.729 0.306,1.895 0.271,2.061 0.203,2.201 0.103,2.316 0.004,2.431 -0.14,2.52 -0.329,2.584 -0.518,2.648 -0.763,2.68 -1.064,2.68 -1.641,2.68 -2.07,2.511 -2.35,2.174 -2.56,1.945 -2.727,1.653 -2.852,1.298 -2.977,0.943 -3.078,0.546 -3.155,0.107 -3.176,0.036 -3.147,0 -3.071,0 L 0,0 Z m -1.723,-4.954 c -0.627,0 -1.141,0.075 -1.539,0.225 -0.398,0.151 -0.71,0.361 -0.934,0.632 -0.225,0.27 -0.38,0.592 -0.464,0.965 -0.083,0.372 -0.126,0.778 -0.126,1.217 0,0.322 0.03,0.705 0.089,1.149 0.058,0.444 0.15,0.897 0.275,1.359 0.125,0.462 0.287,0.902 0.486,1.318 0.199,0.415 0.439,0.766 0.72,1.052 0.26,0.25 0.574,0.443 0.942,0.578 0.368,0.135 0.791,0.203 1.271,0.203 0.48,0 0.887,-0.052 1.222,-0.157 C 0.553,3.483 0.827,3.336 1.042,3.147 1.256,2.958 1.41,2.734 1.505,2.473 1.599,2.213 1.647,1.922 1.647,1.6 1.647,1.371 1.631,1.098 1.601,0.785 1.57,0.471 1.511,0.094 1.425,-0.345 1.373,-0.651 1.308,-0.846 1.229,-0.931 1.15,-1.015 1.044,-1.057 0.911,-1.057 l -4.173,0 c -0.062,0 -0.097,-0.036 -0.107,-0.107 -0.036,-0.199 -0.059,-0.387 -0.069,-0.563 -0.01,-0.176 -0.016,-0.338 -0.016,-0.486 0,-0.567 0.148,-0.983 0.441,-1.248 0.293,-0.266 0.79,-0.398 1.489,-0.398 0.368,0 0.709,0.03 1.022,0.091 0.314,0.061 0.601,0.141 0.862,0.238 0.051,0.02 0.098,0.025 0.142,0.015 0.043,-0.01 0.07,-0.041 0.08,-0.092 L 0.521,-4.365 c 0,-0.092 -0.049,-0.158 -0.145,-0.199 -0.312,-0.148 -0.654,-0.25 -1.027,-0.306 -0.373,-0.056 -0.73,-0.084 -1.072,-0.084"
             style="fill:#626262;fill-opacity:1;fill-rule:nonzero;stroke:none"
             id="path232"
             inkscape:connector-curvature="0" /></g><g
           id="g234"
           transform="translate(258.9157,53.5568)"><path
             d="m 0,0 c 0.01,0.051 0.013,0.097 0.008,0.138 -0.005,0.041 -0.033,0.071 -0.085,0.092 -0.096,0.03 -0.25,0.06 -0.459,0.088 -0.21,0.027 -0.439,0.042 -0.689,0.042 -0.47,0 -0.846,-0.045 -1.13,-0.134 -0.283,-0.09 -0.511,-0.26 -0.685,-0.51 -0.138,-0.209 -0.262,-0.488 -0.371,-0.838 -0.11,-0.35 -0.202,-0.719 -0.276,-1.106 -0.074,-0.388 -0.129,-0.767 -0.165,-1.137 -0.035,-0.371 -0.053,-0.678 -0.053,-0.923 0,-0.24 0.032,-0.438 0.096,-0.594 0.063,-0.155 0.165,-0.278 0.306,-0.367 0.14,-0.09 0.323,-0.152 0.547,-0.188 0.225,-0.036 0.493,-0.053 0.804,-0.053 0.536,0 0.909,0.03 1.119,0.091 0.091,0.02 0.148,0.053 0.168,0.096 0.02,0.044 0.036,0.096 0.046,0.157 L 0,0 Z M 0.268,-6.938 C 0.171,-7.5 0.047,-7.966 -0.103,-8.339 c -0.151,-0.373 -0.351,-0.674 -0.601,-0.904 -0.251,-0.229 -0.564,-0.392 -0.942,-0.486 -0.378,-0.094 -0.833,-0.142 -1.363,-0.142 -0.577,0 -1.122,0.032 -1.635,0.096 -0.513,0.064 -0.905,0.147 -1.175,0.249 -0.082,0.036 -0.108,0.104 -0.077,0.206 l 0.207,0.782 c 0.02,0.056 0.053,0.089 0.099,0.099 0.046,0.01 0.095,0.005 0.146,-0.015 0.117,-0.046 0.273,-0.086 0.467,-0.123 0.194,-0.035 0.401,-0.068 0.62,-0.099 0.219,-0.031 0.439,-0.054 0.659,-0.069 0.219,-0.015 0.423,-0.023 0.612,-0.023 0.403,0 0.727,0.036 0.969,0.107 0.242,0.072 0.434,0.192 0.574,0.36 0.14,0.168 0.245,0.388 0.314,0.659 0.069,0.271 0.134,0.61 0.196,1.018 0.01,0.077 -0.021,0.115 -0.092,0.115 -0.368,-0.036 -0.766,-0.054 -1.195,-0.054 -0.536,0 -0.992,0.04 -1.367,0.119 -0.375,0.079 -0.68,0.208 -0.915,0.387 -0.235,0.178 -0.405,0.415 -0.509,0.708 -0.105,0.294 -0.157,0.652 -0.157,1.076 0,0.347 0.02,0.735 0.061,1.164 0.041,0.429 0.109,0.86 0.203,1.294 0.094,0.434 0.226,0.85 0.394,1.248 0.169,0.398 0.378,0.738 0.628,1.019 0.312,0.368 0.704,0.634 1.176,0.8 0.472,0.166 1.052,0.249 1.742,0.249 0.373,0 0.758,-0.018 1.156,-0.054 C 0.49,1.412 0.924,1.345 1.394,1.248 1.501,1.227 1.549,1.177 1.539,1.095 L 0.268,-6.938 Z"
             style="fill:#626262;fill-opacity:1;fill-rule:nonzero;stroke:none"
             id="path236"
             inkscape:connector-curvature="0" /></g><g
           id="g238"
           transform="translate(263.9017,48.9087)"><path
             d="m 0,0 c -0.021,-0.154 -0.038,-0.287 -0.054,-0.402 -0.015,-0.115 -0.023,-0.216 -0.023,-0.302 0,-0.24 0.052,-0.41 0.157,-0.51 0.104,-0.1 0.31,-0.149 0.616,-0.149 l 0.636,0 c 0.077,0 0.115,-0.031 0.115,-0.092 L 1.286,-2.274 C 1.266,-2.346 1.24,-2.387 1.21,-2.397 1.179,-2.407 1.122,-2.417 1.038,-2.427 0.953,-2.437 0.859,-2.448 0.754,-2.458 0.649,-2.468 0.542,-2.476 0.432,-2.481 0.323,-2.486 0.222,-2.489 0.13,-2.489 c -0.47,0 -0.862,0.093 -1.176,0.28 -0.314,0.186 -0.47,0.516 -0.47,0.991 0,0.163 0.007,0.311 0.022,0.444 0.016,0.133 0.038,0.304 0.069,0.514 l 0.82,5.092 c 0.01,0.061 -0.018,0.092 -0.084,0.092 l -1.272,0 c -0.112,0 -0.158,0.053 -0.137,0.161 l 0.122,0.75 c 0.02,0.107 0.079,0.161 0.176,0.161 l 1.271,0 c 0.072,0 0.108,0.03 0.108,0.092 l 0.313,1.96 c 0.021,0.102 0.085,0.153 0.192,0.153 l 1.08,0 c 0.102,0 0.143,-0.051 0.122,-0.153 L 0.972,6.088 C 0.972,6.026 1,5.996 1.057,5.996 l 1.47,0 c 0.117,0 0.165,-0.054 0.145,-0.161 L 2.542,5.085 C 2.522,4.977 2.466,4.924 2.374,4.924 l -1.478,0 C 0.835,4.924 0.798,4.893 0.788,4.832 L 0,0 Z"
             style="fill:#626262;fill-opacity:1;fill-rule:nonzero;stroke:none"
             id="path240"
             inkscape:connector-curvature="0" /></g><g
           id="g242"><g
             id="g244" /><g
             id="g262"><g
               clip-path="url(#clipPath246)"
               id="g264"
               style="opacity:0.44999701"><g
                 id="g266"><g
                   clip-path="url(#clipPath250)"
                   id="g268"><g
                     id="g270"><g
                       id="g272"><path
                         d="m 54.742,70.865 0.001,0 0,0 16.295,9.408 -16.295,9.407 -16.295,-9.407 0,-10e-4 16.294,-9.407 z"
                         style="fill:url(#linearGradient254);stroke:none"
                         id="path274"
                         inkscape:connector-curvature="0" /></g></g></g></g></g></g></g></g></g></g></svg>