<?xml version="1.0" encoding="UTF-8" standalone="no"?>
<!DOCTYPE svg PUBLIC "-//W3C//DTD SVG 1.1//EN" "http://www.w3.org/Graphics/SVG/1.1/DTD/svg11.dtd">
<svg version="1.1" xmlns="http://www.w3.org/2000/svg" xmlns:xlink="http://www.w3.org/1999/xlink" preserveAspectRatio="xMidYMid meet" viewBox="-1 -1 105.3958598336636 105.39599304926992" width="101.29" height="101.29"><defs><path d="M50.7 75.79L28.97 63.24L28.97 38.15L50.7 50.7L72.43 63.24L50.7 75.79Z" id="c3bhPJMzfk"></path><path d="M50.7 50.7L50.7 50.7L72.43 38.15L50.7 25.61L28.97 38.15L28.97 38.15L50.7 50.7L50.7 50.7Z" id="b908OCGHC"></path><path d="M0 0L0 43.45L14.48 43.45L14.48 14.48L43.46 14.48L43.46 0L0 0Z" id="ao7XHSvO4"></path><path d="M101.4 101.4L101.4 57.94L86.91 57.94L86.91 86.91L57.94 86.91L57.94 101.4L101.4 101.4Z" id="c3Uyr3HrPc"></path><path d="M0 101.4L43.45 101.4L43.45 86.91L14.48 86.91L14.48 57.94L0 57.94L0 101.4Z" id="a1qa0jcKCM"></path><path d="M101.4 0L57.94 0L57.94 14.48L86.91 14.48L86.91 43.46L101.4 43.46L101.4 0Z" id="a2lpo5k2T2"></path><path d="M50.7 50.7L50.7 50.7L72.43 38.15L50.7 25.61L28.97 38.15L28.97 38.15L50.7 50.7L50.7 50.7Z" id="bwpTB04Md"></path><linearGradient id="gradientg2WHLV6xcz" gradientUnits="userSpaceOnUse" x1="70.89" y1="23.56" x2="35.67" y2="49.01"><stop style="stop-color: #ffffff;stop-opacity: 1" offset="0%"></stop><stop style="stop-color: #ffffff;stop-opacity: 1" offset="9.682081%"></stop><stop style="stop-color: #181715;stop-opacity: 1" offset="100%"></stop></linearGradient><path d="M50.65 75.76L28.94 63.23L28.94 38.17L50.65 50.7L72.36 63.23L50.65 75.76Z" id="g5dka4NLGR"></path><path d="M50.65 50.7L50.65 50.7L72.36 38.17L50.65 25.63L28.94 38.17L28.94 38.17L50.65 50.7L50.65 50.7Z" id="bnSTgOrch"></path><path d="M0 0.05L0 43.46L14.47 43.46L14.47 14.52L43.41 14.52L43.41 0.05L0 0.05Z" id="g96yNNVJr"></path><path d="M101.3 101.35L101.3 57.93L86.83 57.93L86.83 86.88L57.89 86.88L57.89 101.35L101.3 101.35Z" id="b8eBzWMXax"></path><path d="M0 101.35L43.41 101.35L43.41 86.88L14.47 86.88L14.47 57.93L0 57.93L0 101.35Z" id="c1nOn0YsSD"></path><path d="M101.3 0.05L57.89 0.05L57.89 14.52L86.83 14.52L86.83 43.46L101.3 43.46L101.3 0.05Z" id="a29gfzQc35"></path></defs><g><g><use xlink:href="#c3bhPJMzfk" opacity="1" fill="#4199c4" fill-opacity="1"></use><g><use xlink:href="#c3bhPJMzfk" opacity="1" fill-opacity="0" stroke="#000000" stroke-width="1" stroke-opacity="0"></use></g></g><g><use xlink:href="#b908OCGHC" opacity="1" fill="#4199c4" fill-opacity="1"></use><g><use xlink:href="#b908OCGHC" opacity="1" fill-opacity="0" stroke="#000000" stroke-width="1" stroke-opacity="0"></use></g></g><g><use xlink:href="#ao7XHSvO4" opacity="1" fill="#4199c4" fill-opacity="1"></use><g><use xlink:href="#ao7XHSvO4" opacity="1" fill-opacity="0" stroke="#000000" stroke-width="1" stroke-opacity="0"></use></g></g><g><use xlink:href="#c3Uyr3HrPc" opacity="1" fill="#4199c4" fill-opacity="1"></use><g><use xlink:href="#c3Uyr3HrPc" opacity="1" fill-opacity="0" stroke="#000000" stroke-width="1" stroke-opacity="0"></use></g></g><g><use xlink:href="#a1qa0jcKCM" opacity="1" fill="#4199c4" fill-opacity="1"></use><g><use xlink:href="#a1qa0jcKCM" opacity="1" fill-opacity="0" stroke="#000000" stroke-width="1" stroke-opacity="0"></use></g></g><g><use xlink:href="#a2lpo5k2T2" opacity="1" fill="#4199c4" fill-opacity="1"></use><g><use xlink:href="#a2lpo5k2T2" opacity="1" fill-opacity="0" stroke="#000000" stroke-width="1" stroke-opacity="0"></use></g></g><g><use xlink:href="#bwpTB04Md" opacity="1" fill="url(#gradientg2WHLV6xcz)"></use><g><use xlink:href="#bwpTB04Md" opacity="1" fill-opacity="0" stroke="#000000" stroke-width="1" stroke-opacity="0"></use></g></g><g><use xlink:href="#g5dka4NLGR" opacity="1" fill="#4199c4" fill-opacity="1"></use><g><use xlink:href="#g5dka4NLGR" opacity="1" fill-opacity="0" stroke="#000000" stroke-width="1" stroke-opacity="0"></use></g></g><g><use xlink:href="#bnSTgOrch" opacity="1" fill="#4199c4" fill-opacity="1"></use><g><use xlink:href="#bnSTgOrch" opacity="1" fill-opacity="0" stroke="#000000" stroke-width="1" stroke-opacity="0"></use></g></g><g><use xlink:href="#g96yNNVJr" opacity="1" fill="#4199c4" fill-opacity="1"></use><g><use xlink:href="#g96yNNVJr" opacity="1" fill-opacity="0" stroke="#000000" stroke-width="1" stroke-opacity="0"></use></g></g><g><use xlink:href="#b8eBzWMXax" opacity="1" fill="#4199c4" fill-opacity="1"></use><g><use xlink:href="#b8eBzWMXax" opacity="1" fill-opacity="0" stroke="#000000" stroke-width="1" stroke-opacity="0"></use></g></g><g><use xlink:href="#c1nOn0YsSD" opacity="1" fill="#4199c4" fill-opacity="1"></use><g><use xlink:href="#c1nOn0YsSD" opacity="1" fill-opacity="0" stroke="#000000" stroke-width="1" stroke-opacity="0"></use></g></g><g><use xlink:href="#a29gfzQc35" opacity="1" fill="#4199c4" fill-opacity="1"></use><g><use xlink:href="#a29gfzQc35" opacity="1" fill-opacity="0" stroke="#000000" stroke-width="1" stroke-opacity="0"></use></g></g></g></svg>